<?xml version="1.0" encoding="UTF-8"?>
<svg version="1.1" xmlns="http://www.w3.org/2000/svg" width="500" height="500">
<path d="M0 0 C1.88201363 -0.00744736 1.88201363 -0.00744736 3.80204773 -0.01504517 C7.22357233 -0.02709408 10.64503631 -0.03459544 14.06657481 -0.03905582 C16.20880499 -0.04199966 18.35102998 -0.04610672 20.49325752 -0.05056 C27.20962907 -0.06420716 33.92598858 -0.07388896 40.64237303 -0.07776189 C48.3708189 -0.0822444 56.09908808 -0.09981287 63.82748026 -0.12876248 C69.82009294 -0.15042452 75.81265605 -0.16046848 81.80530745 -0.16180301 C85.37644339 -0.16284724 88.9474126 -0.16867393 92.518507 -0.18662262 C96.50328072 -0.20626475 100.48783541 -0.20179632 104.47265625 -0.1953125 C105.64332642 -0.20452728 106.81399658 -0.21374207 108.0201416 -0.22323608 C116.26926236 -0.1812678 124.23926475 0.60224367 130.61352539 6.34863281 C131.2284082 6.8784375 131.84329102 7.40824219 132.47680664 7.95410156 C137.90075828 14.51627003 138.8901615 20.60329511 138.83447266 28.94824219 C138.84308823 29.99969925 138.8517038 31.05115631 138.86058044 32.13447571 C138.88318372 35.59153231 138.87651198 39.04777465 138.86743164 42.50488281 C138.87266936 44.91809326 138.87894638 47.33130165 138.88621521 49.74450684 C138.89660881 54.79477595 138.89207207 59.8447631 138.87744141 64.89501953 C138.86024794 71.35803338 138.88376255 77.82015868 138.91893101 84.28307343 C138.94091814 89.26403667 138.93946034 94.24478768 138.9311657 99.2257843 C138.93034706 101.60835241 138.93719362 103.99093623 138.95193672 106.37345886 C138.96940767 109.70753222 138.95481728 113.04001335 138.93212891 116.37402344 C138.94966721 117.84087334 138.94966721 117.84087334 138.96755981 119.33735657 C138.86074572 127.07434403 136.40400303 131.72932324 131.27368164 137.40332031 C130.64333008 137.94214844 130.01297852 138.48097656 129.36352539 139.03613281 C128.73575195 139.59042969 128.10797852 140.14472656 127.46118164 140.71582031 C122.45457359 144.0656304 117.3656543 144.44414155 111.49633789 144.35644531 C110.41036819 144.35220047 110.41036819 144.35220047 109.30245972 144.34786987 C107.01014049 144.33675368 104.71822476 144.31166593 102.42602539 144.28613281 C100.86353107 144.27609191 99.30103057 144.26696801 97.73852539 144.25878906 C93.92587202 144.23684254 90.11351691 144.20237294 86.30102539 144.16113281 C86.32459106 145.16696411 86.32459106 145.16696411 86.34863281 146.19311523 C86.41117197 149.24486791 86.45007602 152.29648549 86.48852539 155.34863281 C86.51366211 156.40373047 86.53879883 157.45882812 86.56469727 158.54589844 C86.57919922 160.07827148 86.57919922 160.07827148 86.59399414 161.64160156 C86.61755981 163.04768677 86.61755981 163.04768677 86.64160156 164.48217773 C86.11415836 168.63101952 84.21335399 171.24880421 81.30102539 174.16113281 C78.1707561 174.23392977 76.101204 173.77961949 73.59790039 171.84472656 C69.04491912 167.42505331 64.83353111 162.43304865 61.30102539 157.16113281 C61.30102539 156.50113281 61.30102539 155.84113281 61.30102539 155.16113281 C60.64102539 155.16113281 59.98102539 155.16113281 59.30102539 155.16113281 C57.82836914 153.51660156 57.82836914 153.51660156 56.23852539 151.34863281 C55.71129883 150.6409375 55.18407227 149.93324219 54.64086914 149.20410156 C53.30102539 147.16113281 53.30102539 147.16113281 52.30102539 144.16113281 C51.00009445 144.1777874 51.00009445 144.1777874 49.67288208 144.19477844 C41.4644756 144.29532805 33.25627856 144.37127331 25.04739571 144.42019367 C20.82795882 144.44619064 16.60903453 144.48140474 12.38989258 144.53833008 C8.31145122 144.5930072 4.23350015 144.62262765 0.15472031 144.63551903 C-1.39451939 144.64469542 -2.9437349 144.66261384 -4.49276352 144.6897831 C-14.40862014 144.85664717 -22.57848746 144.28025083 -30.51901245 137.63887024 C-38.36203911 129.5641827 -38.12194478 118.64527981 -37.99194336 108.05957031 C-37.98769852 106.74195709 -37.98345367 105.42434387 -37.9790802 104.06680298 C-37.96773594 100.597944 -37.93836172 97.12947401 -37.90496826 93.6607666 C-37.87403972 90.10755675 -37.86052667 86.5542828 -37.84545898 83.00097656 C-37.81347943 76.05420423 -37.76241281 69.1076873 -37.69897461 62.16113281 C-39.28532483 62.39121414 -40.86808345 62.64612794 -42.44897461 62.91113281 C-43.33069336 63.05035156 -44.21241211 63.18957031 -45.12084961 63.33300781 C-48.40378263 64.38752569 -49.70477236 65.33316805 -51.69897461 68.16113281 C-52.09370972 70.9332908 -52.2466195 73.30858333 -52.21655273 76.07910156 C-52.22356201 76.87305328 -52.23057129 77.667005 -52.23779297 78.48501587 C-52.25538247 81.10657845 -52.24374734 83.72705946 -52.23022461 86.34863281 C-52.23291926 88.17179573 -52.23680146 89.99495724 -52.24182129 91.81811523 C-52.24771761 95.63799734 -52.23914915 99.45750516 -52.22045898 103.27734375 C-52.19766925 108.1736785 -52.21079162 113.06913627 -52.23474884 117.96543884 C-52.24920325 121.72984423 -52.24460249 125.49404171 -52.23423767 129.25845337 C-52.23156939 131.06377262 -52.23484371 132.86911075 -52.24415588 134.67440796 C-52.25431579 137.19783524 -52.23882948 139.71984256 -52.21655273 142.24316406 C-52.22869812 143.36230698 -52.22869812 143.36230698 -52.24108887 144.50405884 C-52.18445163 147.967173 -51.95498255 149.82826131 -49.81550598 152.61009216 C-45.85661174 155.51125676 -41.57769988 155.29415339 -36.81225586 155.40722656 C-35.70946289 155.44009766 -34.60666992 155.47296875 -33.47045898 155.50683594 C-31.15285866 155.56834199 -28.8351417 155.62559181 -26.51733398 155.67871094 C-25.4184082 155.71287109 -24.31948242 155.74703125 -23.18725586 155.78222656 C-22.18218994 155.80728271 -21.17712402 155.83233887 -20.14160156 155.8581543 C-17.69897461 156.16113281 -17.69897461 156.16113281 -15.69897461 158.16113281 C-15.50366211 161.41894531 -15.50366211 161.41894531 -15.57397461 165.28613281 C-15.59202148 166.56746094 -15.61006836 167.84878906 -15.62866211 169.16894531 C-15.65186523 170.15636719 -15.67506836 171.14378906 -15.69897461 172.16113281 C-16.35897461 172.16113281 -17.01897461 172.16113281 -17.69897461 172.16113281 C-18.68897461 170.18113281 -18.68897461 170.18113281 -19.69897461 168.16113281 C-21.34897461 168.49113281 -22.99897461 168.82113281 -24.69897461 169.16113281 C-24.69897461 167.84113281 -24.69897461 166.52113281 -24.69897461 165.16113281 C-25.5825061 165.18469849 -25.5825061 165.18469849 -26.48388672 165.20874023 C-29.20131488 165.27182481 -31.91858822 165.31035272 -34.63647461 165.34863281 C-35.56266602 165.37376953 -36.48885742 165.39890625 -37.44311523 165.42480469 C-44.45459332 165.49860972 -51.19654576 164.95292393 -56.85522461 160.44238281 C-57.29866211 159.85457031 -57.74209961 159.26675781 -58.19897461 158.66113281 C-58.66303711 158.07332031 -59.12709961 157.48550781 -59.60522461 156.87988281 C-62.18199824 152.83066711 -61.86011014 148.65370396 -61.87597656 144.03710938 C-61.88254776 143.20910828 -61.88911896 142.38110718 -61.89588928 141.52801514 C-61.91561059 138.78592843 -61.92728269 136.04389648 -61.93725586 133.30175781 C-61.94133139 132.36444572 -61.94540691 131.42713364 -61.94960594 130.46141815 C-61.97046237 125.49967164 -61.98476557 120.53795274 -61.99414062 115.57617188 C-62.00520016 110.45713118 -62.03959605 105.33852575 -62.07931232 100.21963882 C-62.10548675 96.27845463 -62.11383323 92.337374 -62.1174221 88.39611053 C-62.12228643 86.50950941 -62.13389605 84.62291285 -62.1524601 82.73639679 C-62.17686777 80.09149419 -62.17588363 77.44771566 -62.16894531 74.80273438 C-62.1881604 73.6413092 -62.1881604 73.6413092 -62.20776367 72.4564209 C-62.14866796 66.25304246 -60.31873793 62.14940504 -56.17163086 57.41894531 C-51.35218551 53.54736872 -47.99628135 53.13327716 -42.03100586 53.14941406 C-41.21994385 53.15110596 -40.40888184 53.15279785 -39.57324219 53.15454102 C-38.95473389 53.15671631 -38.33622559 53.1588916 -37.69897461 53.16113281 C-37.71468506 52.23365234 -37.73039551 51.30617187 -37.74658203 50.35058594 C-37.79801518 46.87656959 -37.83547143 43.40296375 -37.86376953 39.92871094 C-37.87876349 38.43124974 -37.89916566 36.93383176 -37.92529297 35.43652344 C-38.11316231 24.38538577 -37.5909166 15.9233204 -30.42944336 6.92285156 C-22.46191411 -1.18856083 -10.50465301 0.01001345 0 0 Z " fill="#FCFCFC" transform="translate(211.698974609375,155.8388671875)"/>
<path d="M0 0 C2.94604005 0.15107898 4.53114362 0.61198093 6.8125 2.5 C8.58877686 6.23953024 8.40923721 9.92336781 8 14 C7.67 14.66 7.34 15.32 7 16 C6.9283265 18.55157655 6.90691558 21.07472971 6.9375 23.625 C6.94201172 24.33140625 6.94652344 25.0378125 6.95117188 25.765625 C6.96296125 27.51045275 6.98089676 29.255237 7 31 C8.24873901 31.02187378 8.24873901 31.02187378 9.52270508 31.04418945 C12.61489653 31.1052863 15.70642082 31.17944556 18.7980957 31.26245117 C20.7929063 31.31201319 22.78807257 31.34651133 24.78320312 31.38085938 C26.03681641 31.41630859 27.29042969 31.45175781 28.58203125 31.48828125 C29.73936768 31.51446533 30.8967041 31.54064941 32.08911133 31.56762695 C35 32 35 32 36.9206543 33.30151367 C38.73713071 36.15996796 37.65690622 38.83490641 37 42 C35.02 42.66 33.04 43.32 31 44 C31.875 46.25 31.875 46.25 34.5 47.25 C37 49 37 49 38 51.9375 C38 55 38 55 36.75 57.3125 C35 59 35 59 32 60 C31.505 60.99 31.505 60.99 31 62 C32.175625 62.1546875 32.175625 62.1546875 33.375 62.3125 C36 63 36 63 38 66 C37.625 69.6875 37.625 69.6875 37 73 C34.03 73.99 34.03 73.99 31 75 C31.495 75.721875 31.99 76.44375 32.5 77.1875 C34.10589707 80.198557 34.52802213 81.65585985 34 85 C32.7191925 86.62020874 32.7191925 86.62020874 31 88 C28.00758893 88.34815172 25.22842109 88.51588027 22.23046875 88.5390625 C21.35787918 88.55141937 20.48528961 88.56377625 19.58625793 88.57650757 C17.73278504 88.59609439 15.87920779 88.60730953 14.02563477 88.61083984 C11.23462523 88.62476488 8.44829402 88.6918736 5.65820312 88.76171875 C-5.99090246 88.9000404 -14.1273133 87.42925832 -24 81 C-24.17823436 74.59580336 -24.30038228 68.19225133 -24.38452148 61.78613281 C-24.4196135 59.6094574 -24.46730105 57.4329457 -24.52807617 55.25683594 C-24.61349125 52.11872906 -24.65280114 48.98281161 -24.68359375 45.84375 C-24.71972275 44.87884644 -24.75585175 43.91394287 -24.79307556 42.9197998 C-24.7961152 37.62862057 -24.20390572 34.62291039 -20.68383789 30.56445312 C-19.47384904 29.35801988 -18.24577102 28.16944805 -17 27 C-10.64575883 20.31009012 -6.85644085 13.48077388 -3.3125 5 C-2 2 -2 2 0 0 Z " fill="#030303" transform="translate(267,179)"/>
<path d="M0 0 C6.65686814 -0.0505916 13.31368694 -0.0856876 19.97070312 -0.10986328 C22.23667249 -0.11993859 24.50262881 -0.13359918 26.76855469 -0.15087891 C30.02021501 -0.17506011 33.27170387 -0.18646763 36.5234375 -0.1953125 C38.05005508 -0.21079636 38.05005508 -0.21079636 39.60751343 -0.22659302 C41.01874985 -0.22681961 41.01874985 -0.22681961 42.45849609 -0.22705078 C43.70425919 -0.23371262 43.70425919 -0.23371262 44.97518921 -0.24050903 C47 0 47 0 49 2 C48.625 5.125 48.625 5.125 48 8 C45.20679248 8.93106917 43.84009691 9.08379415 40.99438477 8.95141602 C36.49178453 8.77343813 31.99422406 8.68324922 27.48852539 8.6237793 C25.55319495 8.58324797 23.61822193 8.51595503 21.68481445 8.4206543 C10.76755477 7.61530498 10.76755477 7.61530498 0.98748779 11.55975342 C-2.57208847 15.36380242 -5.13551677 19.62682091 -7.73576355 24.11302185 C-10.04018031 27.55255571 -13.1247419 30.45403878 -17.16015625 31.62890625 C-20.56372118 31.51009598 -22.92749924 31.03856424 -25.9375 29.4375 C-28.56356875 26.33396421 -28.76928323 23.9990906 -29 20 C-28.24976563 20.15082031 -27.49953125 20.30164063 -26.7265625 20.45703125 C-23.12797348 20.869464 -20.52837719 20.89247188 -17 20 C-12.39395509 15.71225901 -9.16295939 10.60029362 -5.9375 5.23144531 C-5.03186881 3.77265871 -4.02283131 2.3791455 -3 1 C-2.01 1 -1.02 1 0 1 C0 0.67 0 0.34 0 0 Z M-6 10 C-5.67 11.65 -5.34 13.3 -5 15 C-3.45833358 13.62514468 -3.45833358 13.62514468 -2 12 C-2 11.34 -2 10.68 -2 10 C-3.32 10 -4.64 10 -6 10 Z M-11 17 C-11 20 -11 20 -11 20 Z " fill="#FBFBFB" transform="translate(216,312)"/>
<path d="M0 0 C1.89623202 1.89623202 1.12897626 4.66370359 1.13894653 7.1862793 C1.1369223 8.05293213 1.13489807 8.91958496 1.1328125 9.8125 C1.13376923 10.69655518 1.13472595 11.58061035 1.13571167 12.49145508 C1.13639351 14.36442129 1.13453893 16.23738986 1.13037109 18.11035156 C1.12502289 20.98768388 1.13031593 23.86486008 1.13671875 26.7421875 C1.13605797 28.55729201 1.13477681 30.37239643 1.1328125 32.1875 C1.13483673 33.05415283 1.13686096 33.92080566 1.13894653 34.8137207 C1.11495009 40.88504991 1.11495009 40.88504991 0 42 C-7.20570265 42.59063136 -7.20570265 42.59063136 -10.4375 40.1875 C-14.15560682 34.98215045 -13.2223749 28.79590961 -13.24023438 22.65820312 C-13.24993322 20.63890274 -13.28096756 18.62062388 -13.3125 16.6015625 C-13.31765625 15.3228125 -13.3228125 14.0440625 -13.328125 12.7265625 C-13.3374707 11.55689941 -13.34681641 10.38723633 -13.35644531 9.18212891 C-12.96349341 5.67409121 -12.10240024 3.80682588 -10 1 C-6.74696956 -0.62651522 -3.60774398 -0.11453156 0 0 Z " fill="#040404" transform="translate(233,218)"/>
</svg>
