<?xml version="1.0" encoding="UTF-8"?>
<svg version="1.1" xmlns="http://www.w3.org/2000/svg" width="500" height="500">
<path d="M0 0 C26.8203906 22.61776529 45.11538722 52.47849996 48.625 87.875 C49.5494731 103.51365475 49.84640071 119.67158286 45.625 134.875 C45.40457031 135.67631348 45.18414062 136.47762695 44.95703125 137.30322266 C39.78833033 155.44495267 31.88156186 172.42263715 19.625 186.875 C19.17930664 187.40287109 18.73361328 187.93074219 18.27441406 188.47460938 C-2.15981394 212.40102871 -33.70039624 231.14323832 -65.375 233.875 C-66.12587891 233.94058105 -66.87675781 234.00616211 -67.65039062 234.07373047 C-104.88834162 237.11848058 -138.10576258 227.11300062 -167.375 203.875 C-168.40367187 203.07835937 -168.40367187 203.07835937 -169.453125 202.265625 C-170.80624966 201.19071289 -172.10111268 200.04273005 -173.375 198.875 C-173.375 198.215 -173.375 197.555 -173.375 196.875 C-173.94992188 196.63136719 -174.52484375 196.38773438 -175.1171875 196.13671875 C-191.70844661 186.86513277 -202.92493782 159.82704989 -208.34765625 142.5546875 C-218.38047933 106.61963298 -215.0523082 69.58337855 -196.86328125 36.98828125 C-193.02754314 30.43882366 -188.31880007 24.61272155 -183.375 18.875 C-182.57707031 17.94816406 -181.77914062 17.02132812 -180.95703125 16.06640625 C-178.80207236 13.62955945 -176.60098836 11.24688647 -174.375 8.875 C-173.78976563 8.21371094 -173.20453125 7.55242187 -172.6015625 6.87109375 C-158.54471846 -8.32134686 -137.95515686 -18.30824578 -118.375 -24.125 C-117.34125244 -24.44259277 -117.34125244 -24.44259277 -116.28662109 -24.76660156 C-76.82379855 -36.4162114 -31.78275574 -25.10609051 0 0 Z " fill="#EEEAD1" transform="translate(332.375,140.125)"/>
<path d="M0 0 C1.31758332 27.20850521 1.11876482 54.42864184 1.06866455 81.66107178 C1.05828022 87.91727353 1.05383515 94.17347954 1.04882812 100.4296875 C1.03822793 112.61980257 1.02124953 124.80989915 1 137 C-0.17031265 137.27397614 -1.34062531 137.54795227 -2.54640198 137.83023071 C-4.09547631 138.19359337 -5.64454309 138.55698822 -7.19360352 138.92041016 C-7.96334755 139.10052139 -8.73309158 139.28063263 -9.52616119 139.46620178 C-14.68995376 140.67855467 -19.82187657 141.9728804 -24.9375 143.375 C-32.60541775 145.43816052 -40.31842196 147.2463703 -48.0625 149 C-56.3277291 150.87272644 -64.50498241 152.89743724 -72.64770508 155.24389648 C-78.55553037 156.92805233 -84.51041905 158.26740124 -90.51782227 159.54467773 C-96.28723714 160.78863844 -101.87277367 162.36534635 -107.49609375 164.16796875 C-112.23730775 165.29380886 -117.14696161 165.55881469 -122 166 C-122 120.79 -122 75.58 -122 29 C-108.14 25.535 -108.14 25.535 -94 22 C-90.535 21.071875 -87.07 20.14375 -83.5 19.1875 C-77.49269953 17.58101808 -71.6080884 16.36208674 -65.44921875 15.46875 C-63.1075744 15.0205884 -61.22037159 14.36881719 -59.0625 13.375 C-56 12 -56 12 -51 12 C-50.67 38.4 -50.34 64.8 -50 92 C-47.69 88.37 -45.38 84.74 -43 81 C-41.38539403 78.74811214 -39.74569058 76.51359538 -38.0625 74.3125 C-37.29035156 73.29800781 -36.51820313 72.28351563 -35.72265625 71.23828125 C-35.15417969 70.49964844 -34.58570313 69.76101562 -34 69 C-29.68540089 71.73811097 -25.99786376 74.68293679 -22.25 78.1875 C-18.88969827 81.47154311 -18.88969827 81.47154311 -15 84 C-15 56.94 -15 29.88 -15 2 C-4.875 -0.25 -4.875 -0.25 0 0 Z " fill="#2B6B53" transform="translate(295,142)"/>
<path d="M0 0 C1.32 0 2.64 0 4 0 C4 9.9 4 19.8 4 30 C11.92 30 19.84 30 28 30 C28 75.54 28 121.08 28 168 C-14.6875 167.875 -14.6875 167.875 -28.0925293 167.75732422 C-32.10932942 167.77051963 -32.10932942 167.77051963 -36.12605286 167.79690552 C-37.89468748 167.80225437 -39.6634534 167.78824406 -41.43183899 167.75808716 C-55.01806392 167.54628506 -62.10088597 169.44271526 -72 179 C-73.44323646 180.12975598 -74.9000335 181.24297945 -76.3828125 182.3203125 C-77.00712158 182.78896729 -77.63143066 183.25762207 -78.2746582 183.74047852 C-78.885271 184.19737061 -79.49588379 184.6542627 -80.125 185.125 C-80.79168701 185.62507568 -81.45837402 186.12515137 -82.14526367 186.64038086 C-87.00876207 190.28054889 -91.91469652 193.85502892 -96.86328125 197.37890625 C-98.76009986 198.81799166 -100.33531711 200.30861097 -102 202 C-103.33499 203.08649681 -104.69013755 204.1486088 -106.0625 205.1875 C-106.75472656 205.71730469 -107.44695312 206.24710938 -108.16015625 206.79296875 C-110 208 -110 208 -112 208 C-111.33444272 204.47501147 -109.90015633 201.87814316 -108.0625 198.8125 C-107.43988281 197.76320313 -106.81726563 196.71390625 -106.17578125 195.6328125 C-105.45090921 194.42164248 -104.72561926 193.21072251 -104 192 C-102.69015673 189.81066878 -101.38257009 187.62008265 -100.07983398 185.42651367 C-99.21232909 183.96591382 -98.34092285 182.50762202 -97.46508789 181.05200195 C-97.05895264 180.368396 -96.65281738 179.68479004 -96.234375 178.98046875 C-95.87569336 178.38129639 -95.51701172 177.78212402 -95.14746094 177.16479492 C-93.57705597 174.20207559 -92.32088592 171.08206716 -91 168 C-100.24 168 -109.48 168 -119 168 C-119 167.67 -119 167.34 -119 167 C-118.07272095 166.80422363 -118.07272095 166.80422363 -117.12670898 166.60449219 C-106.30201473 164.30995839 -95.53184796 161.97430289 -84.86328125 159.03125 C-80.11636988 157.76412705 -75.3442389 156.62724917 -70.5625 155.5 C-57.98509348 152.52813755 -45.46340331 149.42124301 -33 146 C-19.4015573 142.27635252 -19.4015573 142.27635252 -13.25 140.6875 C-11.49429688 140.22923828 -11.49429688 140.22923828 -9.703125 139.76171875 C-6.6837839 139.14065175 -3.82783813 138.74262667 -0.76855469 138.45239258 C0.1261554 138.3664534 1.02086548 138.28051422 1.94268799 138.19197083 C2.62160095 138.12862045 3.30051392 138.06527008 4 138 C3.98747192 136.7261142 3.97494385 135.45222839 3.96203613 134.13973999 C3.84277753 121.99356199 3.72509003 109.8473696 3.60884857 97.70116234 C3.54907409 91.46027241 3.48879112 85.21938836 3.42724609 78.97851562 C2.89760093 25.19965621 2.89760093 25.19965621 3 1 C2.01 0.67 1.02 0.34 0 0 Z " fill="#98BF4D" transform="translate(292,141)"/>
<path d="M0 0 C0 26.73 0 53.46 0 81 C-4.9684875 78.51575625 -8.3300977 75.10562196 -12.34375 71.3125 C-14.59824483 69.34976333 -16.34355531 68.23910838 -19 67 C-20.91799909 69.70739194 -22.8341546 72.41608371 -24.75 75.125 C-25.28882813 75.88554687 -25.82765625 76.64609375 -26.3828125 77.4296875 C-28.74764211 80.77505622 -31.09475679 84.11982373 -33.328125 87.5546875 C-33.87984375 88.36164063 -34.4315625 89.16859375 -35 90 C-35.33 90 -35.66 90 -36 90 C-36 63.27 -36 36.54 -36 9 C-27.00843448 5.62816293 -27.00843448 5.62816293 -23.7109375 4.90234375 C-22.99679687 4.74056641 -22.28265625 4.57878906 -21.546875 4.41210938 C-20.83015625 4.25548828 -20.1134375 4.09886719 -19.375 3.9375 C-15.43726 3.06517148 -11.60156495 2.21003545 -7.7890625 0.87890625 C-5 0 -5 0 0 0 Z " fill="#CFE44D" transform="translate(280,145)"/>
<path d="M0 0 C11.25 1.125 11.25 1.125 16 3 C16.21583918 7.71968349 15.4380185 11.47631582 14.125 16 C5.61688171 47.76664271 10.13863424 81.65691754 18 113 C18.18739746 113.74991211 18.37479492 114.49982422 18.56787109 115.27246094 C18.71047363 115.84254883 18.85307617 116.41263672 19 117 C15.20889476 117.06651062 11.72560914 117.11839626 7.97607422 116.5065918 C3.3070632 115.82721603 -1.33980647 115.81967328 -6.05078125 115.796875 C-7.49506248 115.78628555 -7.49506248 115.78628555 -8.96852112 115.77548218 C-37.13819029 115.6161084 -63.60121035 117.66027697 -91.24169922 123.10595703 C-91.9273999 123.238237 -92.61310059 123.37051697 -93.31958008 123.50680542 C-95.19063901 123.86857378 -97.05998339 124.23917763 -98.92919922 124.61035156 C-101.73247465 124.96605418 -103.37764545 124.94401525 -106 124 C-99.26293179 121.23796595 -92.47662229 119.62109337 -85.375 118.0625 C-75.12478441 115.77370162 -75.12478441 115.77370162 -65 113 C-57.5534635 110.77154142 -49.98284164 109.13917916 -42.40332031 107.43505859 C-33.00669923 105.295541 -23.7191959 102.82764375 -14.45214844 100.18432617 C-12.92122559 99.7566394 -12.92122559 99.7566394 -11.359375 99.3203125 C-10.46702148 99.06523926 -9.57466797 98.81016602 -8.65527344 98.54736328 C-6 98 -6 98 0 98 C0 65.66 0 33.32 0 0 Z " fill="#FAFDF7" transform="translate(296,181)"/>
<path d="M0 0 C7.26 0 14.52 0 22 0 C22.02260747 14.07366878 22.04094783 28.14732546 22.05181217 42.2210083 C22.05702694 48.75623246 22.06409909 55.29144353 22.07543945 61.82666016 C22.08631825 68.13548918 22.09228744 74.44430563 22.09487724 80.75314331 C22.09672249 83.15803221 22.10032576 85.56292042 22.10573006 87.96780396 C22.11300671 91.34053018 22.11398814 94.71320467 22.11352539 98.0859375 C22.11712067 99.07640579 22.12071594 100.06687408 22.12442017 101.08735657 C22.11642356 106.48647359 21.79361777 111.65794976 21 117 C19.35 116.34 17.7 115.68 16 115 C15.67 112.36 15.34 109.72 15 107 C14.34 107 13.68 107 13 107 C4.50943192 75.47169055 6.99073852 42.31392402 15 11 C14.25234375 10.89042969 13.5046875 10.78085938 12.734375 10.66796875 C11.74953125 10.50941406 10.7646875 10.35085937 9.75 10.1875 C8.77546875 10.03667969 7.8009375 9.88585937 6.796875 9.73046875 C3.74939084 8.93454761 2.12590704 8.33343606 0 6 C0 4.02 0 2.04 0 0 Z " fill="#8DBC39" transform="translate(297,173)"/>
<path d="M0 0 C0.78117187 0.01804687 1.56234375 0.03609375 2.3671875 0.0546875 C2.94726562 0.07789063 3.52734375 0.10109375 4.125 0.125 C3.1659375 0.805625 3.1659375 0.805625 2.1875 1.5 C0.02797594 2.96421726 0.02797594 2.96421726 -0.875 5.125 C0.445 5.785 1.765 6.445 3.125 7.125 C2.568125 7.11597656 2.01125 7.10695313 1.4375 7.09765625 C-4.62097583 7.33303622 -7.43097344 8.93721929 -11.7265625 13.10546875 C-14.06510119 15.30369512 -16.51462081 17.13384067 -19.125 19 C-23.07878268 21.82881137 -26.99294634 24.69837406 -30.875 27.625 C-35.73366767 31.28642101 -40.64565536 34.86441043 -45.59765625 38.3984375 C-47.54924464 39.87802938 -49.16685403 41.38453775 -50.875 43.125 C-52.20999 44.21149681 -53.56513755 45.2736088 -54.9375 46.3125 C-55.62972656 46.84230469 -56.32195312 47.37210937 -57.03515625 47.91796875 C-58.875 49.125 -58.875 49.125 -60.875 49.125 C-60.20944272 45.60001147 -58.77515633 43.00314316 -56.9375 39.9375 C-56.31488281 38.88820313 -55.69226563 37.83890625 -55.05078125 36.7578125 C-54.32590921 35.54664248 -53.60061926 34.33572251 -52.875 33.125 C-51.56515673 30.93566878 -50.25757009 28.74508265 -48.95483398 26.55151367 C-48.08732909 25.09091382 -47.21592285 23.63262202 -46.34008789 22.17700195 C-45.93395264 21.493396 -45.52781738 20.80979004 -45.109375 20.10546875 C-44.75069336 19.50629639 -44.39201172 18.90712402 -44.02246094 18.28979492 C-42.45205597 15.32707559 -41.19588592 12.20706716 -39.875 9.125 C-49.115 9.125 -58.355 9.125 -67.875 9.125 C-67.875 8.795 -67.875 8.465 -67.875 8.125 C-45.57941964 4.05496868 -45.57941964 4.05496868 -34.25 4.1875 C-25.40910064 4.28247366 -16.1767712 3.92760221 -7.75 1.0625 C-4.95160566 0.14998011 -2.91785225 -0.08841977 0 0 Z " fill="#8EBD3A" transform="translate(240.875,299.875)"/>
<path d="M0 0 C1.14085885 4.79160719 0.5625312 7.41006461 -1 12 C-0.71360214 14.77747682 -0.71360214 14.77747682 0 17 C0.99 16.34 1.98 15.68 3 15 C3 15.99 3 16.98 3 18 C3.61875 18.103125 4.2375 18.20625 4.875 18.3125 C7 19 7 19 9 22 C8.5467334 22.33733154 8.0934668 22.67466309 7.62646484 23.0222168 C5.54133644 24.5755657 3.45816097 26.13151374 1.375 27.6875 C0.66214844 28.21794922 -0.05070312 28.74839844 -0.78515625 29.29492188 C-4.96329341 32.41894186 -9.01221598 35.63708242 -13 39 C-14.40609253 40.11760113 -15.82122659 41.22404467 -17.25 42.3125 C-18.24773437 43.08013672 -18.24773437 43.08013672 -19.265625 43.86328125 C-21 45 -21 45 -23 45 C-22.33444272 41.47501147 -20.90015633 38.87814316 -19.0625 35.8125 C-18.43988281 34.76320313 -17.81726563 33.71390625 -17.17578125 32.6328125 C-16.45090921 31.42164248 -15.72561926 30.21072251 -15 29 C-13.69015673 26.81066878 -12.38257009 24.62008265 -11.07983398 22.42651367 C-10.21232909 20.96591382 -9.34092285 19.50762202 -8.46508789 18.05200195 C-8.05895264 17.368396 -7.65281738 16.68479004 -7.234375 15.98046875 C-6.69635254 15.08171021 -6.69635254 15.08171021 -6.14746094 14.16479492 C-4.57705597 11.20207559 -3.32088592 8.08206716 -2 5 C-11.24 5 -20.48 5 -30 5 C-30 4.67 -30 4.34 -30 4 C-8.08805031 0 -8.08805031 0 0 0 Z " fill="#8CBB39" transform="translate(203,304)"/>
<path d="M0 0 C0 26.73 0 53.46 0 81 C-4.9684875 78.51575625 -8.3300977 75.10562196 -12.34375 71.3125 C-16.18208854 67.95007032 -16.18208854 67.95007032 -21 67 C-21 66.01 -21 65.02 -21 64 C-14.2523531 65.46887552 -10.68709982 67.74599879 -6.5078125 73.2578125 C-5.0193982 75.27708399 -5.0193982 75.27708399 -2 76 C-2.33 75.01 -2.66 74.02 -3 73 C-3.08989374 70.71540326 -3.11757205 68.42820674 -3.11352539 66.1418457 C-3.11367142 65.44890411 -3.11381744 64.75596252 -3.1139679 64.04202271 C-3.11327163 61.75324363 -3.1054926 59.4645461 -3.09765625 57.17578125 C-3.09579106 55.58823186 -3.09436763 54.00068189 -3.09336853 52.41313171 C-3.08955134 48.2357728 -3.07972786 44.05844869 -3.06866455 39.88110352 C-3.05843328 35.61800609 -3.05386723 31.35490304 -3.04882812 27.09179688 C-3.03810489 18.72784862 -3.02103803 10.36392864 -3 2 C-4.65 2 -6.3 2 -8 2 C-5 0 -5 0 0 0 Z " fill="#BFDE61" transform="translate(280,145)"/>
<path d="M0 0 C-3.09626795 1.62185464 -5.94033315 2.98311316 -9.3125 3.9375 C-10.199375 4.288125 -11.08625 4.63875 -12 5 C-12.70728622 7.02081078 -12.70728622 7.02081078 -13 9 C-14.37478516 9.11214844 -14.37478516 9.11214844 -15.77734375 9.2265625 C-28.2752025 10.38365566 -40.51655592 12.65237421 -52.82397461 15.05517578 C-54.22378845 15.32197749 -55.62360912 15.58874333 -57.0234375 15.85546875 C-58.27044434 16.09934326 -59.51745117 16.34321777 -60.80224609 16.59448242 C-63.66781083 16.95787401 -65.3279748 16.97646128 -68 16 C-61.26290884 13.23795654 -54.47662748 11.62119414 -47.375 10.0625 C-39.25241048 8.2368062 -31.23232204 6.31398166 -23.25 3.94921875 C-19.30712712 2.79763448 -15.34997509 1.72215606 -11.375 0.6875 C-10.69872559 0.50364746 -10.02245117 0.31979492 -9.32568359 0.13037109 C-5.91188558 -0.74405247 -3.3440226 -1.31554189 0 0 Z " fill="#E7F5D5" transform="translate(258,289)"/>
<path d="M0 0 C1.1373923 4.77704766 0.59074607 7.42660506 -1 12 C-0.62092718 14.18703385 -0.62092718 14.18703385 0 16 C-0.33 16.66 -0.66 17.32 -1 18 C-1.66 18 -2.32 18 -3 18 C-3.33 18.99 -3.66 19.98 -4 21 C-4.99 20.67 -5.98 20.34 -7 20 C-6.67 21.98 -6.34 23.96 -6 26 C-6.763125 26.226875 -7.52625 26.45375 -8.3125 26.6875 C-11.55904453 28.27302175 -12.28802794 29.90214579 -14 33 C-14.66 33 -15.32 33 -16 33 C-16 33.99 -16 34.98 -16 36 C-16.66 36 -17.32 36 -18 36 C-16.83940323 31.67413932 -15.10416282 28.6193859 -12.4296875 25.05078125 C-8.08846363 18.82361587 -4.97948982 11.9521429 -2 5 C-11.24 5 -20.48 5 -30 5 C-30 4.67 -30 4.34 -30 4 C-8.08805031 0 -8.08805031 0 0 0 Z " fill="#8DBD39" transform="translate(203,304)"/>
<path d="M0 0 C0.5775 0.20625 1.155 0.4125 1.75 0.625 C-0.23 0.955 -2.21 1.285 -4.25 1.625 C-3.92 26.045 -3.59 50.465 -3.25 75.625 C-1.93 73.315 -0.61 71.005 0.75 68.625 C1.74 68.955 2.73 69.285 3.75 69.625 C2.64966185 71.23179516 1.54457336 72.83533793 0.4375 74.4375 C-0.17738281 75.33082031 -0.79226562 76.22414063 -1.42578125 77.14453125 C-3.25 79.625 -3.25 79.625 -6.25 82.625 C-6.25 55.895 -6.25 29.165 -6.25 1.625 C-2.25 -0.375 -2.25 -0.375 0 0 Z " fill="#C1E06D" transform="translate(250.25,152.375)"/>
<path d="M0 0 C0.33 0 0.66 0 1 0 C1 26.07 1 52.14 1 79 C0.34 78.67 -0.32 78.34 -1 78 C-2.09076941 71.92644687 -2.16047743 65.90317884 -2.16796875 59.74609375 C-2.17296135 58.28007469 -2.17296135 58.28007469 -2.17805481 56.78443909 C-2.18309992 54.71607937 -2.18546388 52.64771157 -2.18530273 50.5793457 C-2.18745719 47.49871312 -2.20554921 44.41845846 -2.22460938 41.33789062 C-2.2625397 27.462478 -1.44602491 13.79850056 0 0 Z " fill="#2D623A" transform="translate(243,154)"/>
<path d="M0 0 C1.91525964 0.01307221 3.83054284 0.02302871 5.74583435 0.03001404 C10.7621946 0.05661209 15.77711315 0.12526211 20.79290771 0.20294189 C25.92098492 0.27483035 31.04929742 0.30658004 36.17773438 0.34179688 C46.22198409 0.41664205 56.26516856 0.5359547 66.30859375 0.68359375 C66.30859375 1.01359375 66.30859375 1.34359375 66.30859375 1.68359375 C65.66919861 1.69390121 65.02980347 1.70420868 64.37103271 1.71482849 C47.43962258 1.98912715 30.50883313 2.28962155 13.57843018 2.62042236 C10.70450045 2.67594506 7.83053976 2.72886 4.95654297 2.78076172 C0.96916809 2.85447846 -3.01725382 2.95229412 -7.00390625 3.05859375 C-8.64117676 3.08651001 -8.64117676 3.08651001 -10.31152344 3.11499023 C-11.27864258 3.14536377 -12.24576172 3.1757373 -13.2421875 3.20703125 C-14.04309814 3.22685059 -14.84400879 3.24666992 -15.66918945 3.26708984 C-18.1920914 3.78671688 -18.97672258 4.8189161 -20.69140625 6.68359375 C-21.68140625 7.01359375 -22.67140625 7.34359375 -23.69140625 7.68359375 C-24.10390625 8.15796875 -24.51640625 8.63234375 -24.94140625 9.12109375 C-27.52135125 11.42461608 -30.38418191 11.87238778 -33.69140625 12.68359375 C-32.59299108 11.51431309 -31.47859676 10.35842744 -30.31785583 9.25099182 C-28.65327347 7.6903208 -28.65327347 7.6903208 -27.11585999 5.88951111 C-19.45795517 -1.61256407 -9.9863154 -0.20063839 0 0 Z " fill="#E5EEB9" transform="translate(252.69140625,308.31640625)"/>
<path d="M0 0 C0.33 0 0.66 0 1 0 C1.05423638 1.91635217 1.09289963 3.83314925 1.125 5.75 C1.14820313 6.81734375 1.17140625 7.8846875 1.1953125 8.984375 C1 12 1 12 0.04060364 13.91574097 C-6.61144616 27.23934889 -4.37552652 47.39577543 -4.1875 61.875 C-4.1723919 63.94269834 -4.15871456 66.01040764 -4.14648438 68.078125 C-4.11404203 73.05236382 -4.06261586 78.02605333 -4 83 C-4.33 83 -4.66 83 -5 83 C-8.59213561 54.64778682 -7.08984809 27.71928038 0 0 Z " fill="#97B35A" transform="translate(312,184)"/>
<path d="M0 0 C2.20665404 3.30998105 2.78262095 5.82021436 3.625 9.6875 C4.01558594 11.45673828 4.01558594 11.45673828 4.4140625 13.26171875 C4.60742188 14.16535156 4.80078125 15.06898438 5 16 C1.16082397 16.06735397 -2.36900377 16.09674758 -6.171875 15.51367188 C-10.034512 14.99536905 -13.7889239 14.79308246 -17.68359375 14.68359375 C-18.38396255 14.66281265 -19.08433136 14.64203156 -19.80592346 14.62062073 C-22.01636106 14.55587535 -24.22690485 14.49659392 -26.4375 14.4375 C-27.94727607 14.39424319 -29.45704188 14.35062677 -30.96679688 14.30664062 C-34.64442196 14.20027252 -38.32216291 14.09879998 -42 14 C-42 13.34 -42 12.68 -42 12 C-28.49465533 8.94172449 -11.41066685 10.89878329 2 14 C1.855625 13.32453125 1.71125 12.6490625 1.5625 11.953125 C1.376875 11.06109375 1.19125 10.1690625 1 9.25 C0.814375 8.36828125 0.62875 7.4865625 0.4375 6.578125 C0 4 0 4 0 0 Z " fill="#F0F8DB" transform="translate(310,282)"/>
<path d="M0 0 C0 0.66 0 1.32 0 2 C-0.89924194 2.12060791 -0.89924194 2.12060791 -1.81665039 2.24365234 C-4.56601347 2.61546743 -7.31423278 2.99517304 -10.0625 3.375 C-11.00544922 3.50132812 -11.94839844 3.62765625 -12.91992188 3.7578125 C-18.12359218 4.48306272 -22.97496648 5.48431405 -28 7 C-34.51120529 8.14493671 -40.47742576 7.94682529 -47 7 C-43.86567285 5.23183518 -41.07289552 4.52366166 -37.52734375 3.96484375 C-36.46193359 3.79533203 -35.39652344 3.62582031 -34.29882812 3.45117188 C-33.18958984 3.28166016 -32.08035156 3.11214844 -30.9375 2.9375 C-29.85533203 2.76412109 -28.77316406 2.59074219 -27.65820312 2.41210938 C-18.4714163 0.97374623 -9.31174426 -0.20692765 0 0 Z " fill="#A0C167" transform="translate(252,297)"/>
<path d="M0 0 C3.72114571 2.31537955 6.61229661 4.28579473 9 8 C7 11 7 11 4.5625 11.6875 C2 12 2 12 -1 12 C-1.66 12.165 -2.32 12.33 -3 12.5 C-5 13 -5 13 -8 13 C-6.40956621 7.91061189 -3.2553049 4.12543357 0 0 Z " fill="#2B6643" transform="translate(261,211)"/>
<path d="M0 0 C0.66 0.99 1.32 1.98 2 3 C1.34 3 0.68 3 0 3 C0.53625 3.886875 1.0725 4.77375 1.625 5.6875 C3 9 3 9 2.1875 11.875 C1.795625 12.57625 1.40375 13.2775 1 14 C0.34 14 -0.32 14 -1 14 C-1 14.99 -1 15.98 -1 17 C-1.66 17 -2.32 17 -3 17 C-3.33 16.34 -3.66 15.68 -4 15 C-6.22996377 19.9135878 -7.86933182 24.71098882 -9.1875 29.9375 C-9.36474609 30.62134766 -9.54199219 31.30519531 -9.72460938 32.00976562 C-10.15467421 33.6719081 -10.57805437 35.33577788 -11 37 C-11.33 37 -11.66 37 -12 37 C-11.47093393 30.64490879 -10.33835249 25.07711169 -8.25 19.0625 C-7.98558105 18.28342285 -7.72116211 17.5043457 -7.44873047 16.70166016 C-5.42641388 10.88644099 -3.04470735 5.36191826 0 0 Z " fill="#D0CFB7" transform="translate(133,182)"/>
<path d="M0 0 C11.25 1.125 11.25 1.125 16 3 C16.21278058 7.46839215 15.59138085 10.82262526 14 15 C13.67 15 13.34 15 13 15 C13 11.7 13 8.4 13 5 C9.04 3.68 5.08 2.36 1 1 C1 17.5 1 34 1 51 C0.67 51 0.34 51 0 51 C0 34.17 0 17.34 0 0 Z " fill="#F0FFFC" transform="translate(296,181)"/>
<path d="M0 0 C-3.07811989 1.61234852 -5.998027 2.99936715 -9.3125 4.0625 C-12.13973014 4.69844477 -12.13973014 4.69844477 -13 7 C-16.776086 8.08179761 -20.40497142 8.10543987 -24.3125 8.0625 C-25.38113281 8.05347656 -26.44976562 8.04445313 -27.55078125 8.03515625 C-28.35902344 8.02355469 -29.16726562 8.01195312 -30 8 C-26.48638237 4.80497464 -22.63822443 3.94365921 -18.125 2.9375 C-16.73124135 2.61556502 -15.33800079 2.29137801 -13.9453125 1.96484375 C-13.27741699 1.80918945 -12.60952148 1.65353516 -11.92138672 1.49316406 C-10.13629065 1.03498184 -8.38511735 0.44981324 -6.640625 -0.14453125 C-3.87001709 -1.04210985 -2.676182 -1.02930077 0 0 Z " fill="#E6F1E9" transform="translate(258,289)"/>
<path d="M0 0 C0.33 13.2 0.66 26.4 1 40 C-1.29576678 37.70423322 -2.0638375 36.09653751 -3 33 C-2.6760092 31.33149203 -2.34115295 29.66508365 -2 28 C-1.92094375 25.94266727 -1.89220175 23.88304487 -1.90234375 21.82421875 C-1.90556641 20.66728516 -1.90878906 19.51035156 -1.91210938 18.31835938 C-1.92048828 17.12017578 -1.92886719 15.92199219 -1.9375 14.6875 C-1.94201172 13.46998047 -1.94652344 12.25246094 -1.95117188 10.99804688 C-1.96293422 7.99864774 -1.97937174 4.99934911 -2 2 C-3.08410156 2.33773437 -4.16820312 2.67546875 -5.28515625 3.0234375 C-9.07735708 4.02033572 -11.2425767 3.91644471 -15 3 C-15 2.67 -15 2.34 -15 2 C-13.62705778 1.65828994 -12.25149882 1.32708883 -10.875 1 C-10.10929687 0.814375 -9.34359375 0.62875 -8.5546875 0.4375 C-6 0 -6 0 0 0 Z " fill="#48755B" transform="translate(295,142)"/>
<path d="M0 0 C0.99 0.66 1.98 1.32 3 2 C-8.57446809 15.14893617 -8.57446809 15.14893617 -16 20 C-16.66 19.67 -17.32 19.34 -18 19 C-18.625 16.4375 -18.625 16.4375 -19 14 C-16.36408461 12.41845077 -14.68675028 11.97152275 -11.5625 11.6875 C-7.16196847 10.83827462 -5.71345948 9.5115358 -3 6 C-2.28566879 3.35065178 -2.28566879 3.35065178 -2 1 C-1.34 0.67 -0.68 0.34 0 0 Z " fill="#E8E2CA" transform="translate(348,326)"/>
<path d="M0 0 C8.25 0 16.5 0 25 0 C24.12686261 4.36568695 23.34897511 6.42547265 21 10 C19.7922442 6.37673261 20.45688872 5.35853631 22 2 C20.74703125 2.02320313 19.4940625 2.04640625 18.203125 2.0703125 C16.5520893 2.08907427 14.90104715 2.10727403 13.25 2.125 C12.425 2.14175781 11.6 2.15851563 10.75 2.17578125 C9.95078125 2.18222656 9.1515625 2.18867188 8.328125 2.1953125 C7.5949707 2.20578613 6.86181641 2.21625977 6.10644531 2.22705078 C4 2 4 2 0 0 Z " fill="#E5EDBB" transform="translate(176,309)"/>
<path d="M0 0 C0.33 0 0.66 0 1 0 C1.05423638 1.91635217 1.09289963 3.83314925 1.125 5.75 C1.14820313 6.81734375 1.17140625 7.8846875 1.1953125 8.984375 C1.00029206 11.99549056 0.42779387 13.416892 -1 16 C-1.25679983 17.99019865 -1.51123399 19.98103313 -1.72265625 21.9765625 C-2.32033306 26.3370778 -4.01855066 30.12000714 -6 34 C-5.73010995 22.37019226 -2.72513222 11.24886535 0 0 Z " fill="#9FBC61" transform="translate(312,184)"/>
<path d="M0 0 C0 0.33 0 0.66 0 1 C2.97 1.33 5.94 1.66 9 2 C8.67 3.32 8.34 4.64 8 6 C8 5.01 8 4.02 8 3 C-1.24 3 -10.48 3 -20 3 C-20 2.67 -20 2.34 -20 2 C-17.60629375 1.46706163 -15.21091562 0.9484183 -12.8125 0.4375 C-12.13896484 0.28603516 -11.46542969 0.13457031 -10.77148438 -0.02148438 C-6.86746475 -0.8403763 -3.84812264 -1.1282845 0 0 Z " fill="#A5C17E" transform="translate(193,306)"/>
<path d="M0 0 C0.66 0.33 1.32 0.66 2 1 C-1.33333333 7 -4.66666667 13 -8 19 C-8.33 19 -8.66 19 -9 19 C-8.505 14.545 -8.505 14.545 -8 10 C-8.66 10 -9.32 10 -10 10 C-9.6875 8.0625 -9.6875 8.0625 -9 6 C-8.01 5.67 -7.02 5.34 -6 5 C-5.67 5.99 -5.34 6.98 -5 8 C-4.34 8 -3.68 8 -3 8 C-2.87625 7.4225 -2.7525 6.845 -2.625 6.25 C-1.99351176 3.97664233 -1.11141809 2.0746471 0 0 Z " fill="#E7ECBE" transform="translate(192,323)"/>
<path d="M0 0 C7.64729032 1.41013864 11.32316415 4.9645357 16.15234375 10.91796875 C16.76207031 11.60503906 17.37179687 12.29210937 18 13 C18.66 13 19.32 13 20 13 C20 13.99 20 14.98 20 16 C15.32300131 14.007945 12.09794951 10.53100137 8.4375 7.09375 C5.75280829 4.78766866 3.6129067 3 0 3 C0 2.01 0 1.02 0 0 Z " fill="#C4E369" transform="translate(259,209)"/>
<path d="M0 0 C-0.78246094 0.26554688 -1.56492188 0.53109375 -2.37109375 0.8046875 C-3.38300781 1.15789062 -4.39492187 1.51109375 -5.4375 1.875 C-6.95150391 2.39707031 -6.95150391 2.39707031 -8.49609375 2.9296875 C-11.13971751 3.74055093 -11.13971751 3.74055093 -12 6 C-14.0625 6.625 -14.0625 6.625 -16 7 C-16 6.34 -16 5.68 -16 5 C-19.3 5.33 -22.6 5.66 -26 6 C-22.05978214 3.3731881 -18.10886119 2.50426458 -13.5625 1.3125 C-12.70333984 1.07466797 -11.84417969 0.83683594 -10.95898438 0.59179688 C-10.12818359 0.37201172 -9.29738281 0.15222656 -8.44140625 -0.07421875 C-7.68545166 -0.27619873 -6.92949707 -0.47817871 -6.15063477 -0.6862793 C-3.79749384 -1.02954029 -2.24524509 -0.72719845 0 0 Z " fill="#5F8C73" transform="translate(224,160)"/>
<path d="M0 0 C1.01911045 3.89114901 1.16782969 5.60596507 -0.4375 9.375 C-0.953125 10.24125 -1.46875 11.1075 -2 12 C-2.66 12 -3.32 12 -4 12 C-3.67 10.68 -3.34 9.36 -3 8 C-2.34 8 -1.68 8 -1 8 C-1 6.68 -1 5.36 -1 4 C-4.3 4 -7.6 4 -11 4 C-9 1 -9 1 -6.625 0.3125 C-4 0 -4 0 0 0 Z " fill="#9FBD55" transform="translate(203,304)"/>
<path d="M0 0 C0 6 0 6 -1.3125 7.5 C-1.869375 7.995 -2.42625 8.49 -3 9 C-3.45375 9.495 -3.9075 9.99 -4.375 10.5 C-6.39863887 12.36797435 -8.61122006 13.64420598 -11 15 C-10.582687 10.07215495 -8.45014073 8.0222855 -4.9375 4.6875 C-4.01839844 3.80449219 -3.09929687 2.92148438 -2.15234375 2.01171875 C-1.44207031 1.34785156 -0.73179687 0.68398437 0 0 Z " fill="#E6E1C8" transform="translate(162,145)"/>
<path d="M0 0 C0.99386719 0.00902344 1.98773438 0.01804688 3.01171875 0.02734375 C4.15060547 0.04474609 4.15060547 0.04474609 5.3125 0.0625 C5.3125 0.3925 5.3125 0.7225 5.3125 1.0625 C-4.31801779 3.60920946 -13.79575108 5.77521761 -23.6875 7.0625 C-23.6875 6.4025 -23.6875 5.7425 -23.6875 5.0625 C-22.12633181 4.72298381 -20.56348662 4.39117456 -19 4.0625 C-18.12988281 3.876875 -17.25976562 3.69125 -16.36328125 3.5 C-13.75037036 3.07277953 -11.32936962 2.98633799 -8.6875 3.0625 C-8.6875 2.4025 -8.6875 1.7425 -8.6875 1.0625 C-5.53819107 0.01273036 -3.29935544 -0.03881595 0 0 Z " fill="#E2E8A2" transform="translate(279.6875,142.9375)"/>
<path d="M0 0 C-3.44476961 3.12841322 -7.0476528 3.92869323 -11.5 4.75 C-12.49580078 4.95689453 -12.49580078 4.95689453 -13.51171875 5.16796875 C-16.9425853 5.83222834 -19.68338388 6.2521918 -23 5 C-4.90322581 -2.4516129 -4.90322581 -2.4516129 0 0 Z " fill="#CCE7BC" transform="translate(213,300)"/>
<path d="M0 0 C3.50183741 0.67091277 6.18603252 2.07424718 9.25 3.875 C10.14203125 4.38804687 11.0340625 4.90109375 11.953125 5.4296875 C12.96632813 6.20699219 12.96632813 6.20699219 14 7 C14 7.99 14 8.98 14 10 C13.67 9.34 13.34 8.68 13 8 C10.36 8 7.72 8 5 8 C4.54625 7.05125 4.0925 6.1025 3.625 5.125 C2.19761746 1.99686321 2.19761746 1.99686321 0 0 Z " fill="#E2E4CA" transform="translate(310,127)"/>
<path d="M0 0 C0.33 0.66 0.66 1.32 1 2 C1.66 2 2.32 2 3 2 C3.33 4.31 3.66 6.62 4 9 C0.22454612 7.90931332 -2.47043472 7.0916909 -5 4 C-3.36587557 2.29159719 -2.13093906 1.06546953 0 0 Z " fill="#ECE5CB" transform="translate(187,351)"/>
<path d="M0 0 C-8.78016632 2.86309771 -16.87763494 3.32421428 -26 2 C-23.01446619 0.29965521 -20.72645203 -0.28844861 -17.3046875 -0.44921875 C-16.42425781 -0.49240234 -15.54382813 -0.53558594 -14.63671875 -0.58007812 C-13.72535156 -0.61552734 -12.81398437 -0.65097656 -11.875 -0.6875 C-10.95589844 -0.73455078 -10.03679687 -0.78160156 -9.08984375 -0.83007812 C-2.27095266 -1.13547633 -2.27095266 -1.13547633 0 0 Z " fill="#99BE53" transform="translate(231,302)"/>
<path d="M0 0 C0.33 0.99 0.66 1.98 1 3 C1.639375 3.309375 2.27875 3.61875 2.9375 3.9375 C5.45468915 5.2342338 5.96886948 6.4221737 7 9 C6.01 9.495 6.01 9.495 5 10 C4.34227572 13.02934491 4.34227572 13.02934491 4 16 C0.78235549 11.17353323 -0.36261136 5.80178176 0 0 Z " fill="#D5D0BA" transform="translate(121,266)"/>
<path d="M0 0 C5.60461531 0.42089996 10.72086547 0.91613111 16 3 C16.21278058 7.46839215 15.59138085 10.82262526 14 15 C13.67 15 13.34 15 13 15 C13 11.7 13 8.4 13 5 C8.71 3.68 4.42 2.36 0 1 C0 0.67 0 0.34 0 0 Z " fill="#EAF6CA" transform="translate(296,181)"/>
<path d="M0 0 C2.20665404 3.30998105 2.78262095 5.82021436 3.625 9.6875 C3.88539063 10.86699219 4.14578125 12.04648437 4.4140625 13.26171875 C4.60742188 14.16535156 4.80078125 15.06898438 5 16 C-0.15171623 16.09038099 -4.91913204 15.84681133 -10 15 C-10 14.67 -10 14.34 -10 14 C-6.04 14 -2.08 14 2 14 C1.67 12.4325 1.34 10.865 1 9.25 C0.31431574 5.99299978 0 3.3674681 0 0 Z " fill="#DEF2BD" transform="translate(310,282)"/>
<path d="M0 0 C-0.99 1.485 -0.99 1.485 -2 3 C-2.66 3 -3.32 3 -4 3 C-4.66 4.32 -5.32 5.64 -6 7 C-8.16874252 6.49396008 -9.99967627 6.00016187 -12 5 C-7.90746174 1.10234452 -5.90669543 -0.70317803 0 0 Z " fill="#E8E1CC" transform="translate(180,135)"/>
<path d="M0 0 C1.89646998 0.11493757 3.79218332 0.24239642 5.6875 0.375 C6.74324219 0.44460937 7.79898437 0.51421875 8.88671875 0.5859375 C11.90677269 0.98760089 14.24078054 1.74069019 17 3 C12.69549832 4.32446205 8.6514098 4.33778837 4.25 3.4375 C1.97586562 2.75802104 1.97586562 2.75802104 0 4 C0 2.68 0 1.36 0 0 Z " fill="#F6EDD7" transform="translate(265,114)"/>
<path d="M0 0 C0.33 0 0.66 0 1 0 C0.88544319 1.91731918 0.75793742 3.8338675 0.625 5.75 C0.55539062 6.81734375 0.48578125 7.8846875 0.4140625 8.984375 C0.0271777 11.80206432 -0.55686166 13.5830366 -2 16 C-3.55090815 14.44909185 -3.20677311 12.96303767 -3.25 10.8125 C-3.22267577 6.5362574 -2.2681142 3.68568558 0 0 Z " fill="#E5DAC6" transform="translate(379,259)"/>
<path d="M0 0 C0.33 0.66 0.66 1.32 1 2 C-0.60197696 6.24523895 -2.39508372 10.26251142 -5 14 C-5.66 14 -6.32 14 -7 14 C-7 14.99 -7 15.98 -7 17 C-7.66 17 -8.32 17 -9 17 C-7.78343135 12.46551686 -5.94998516 9.30403631 -3.17578125 5.61328125 C-1.87906962 3.83407226 -0.88632356 2.01437174 0 0 Z " fill="#A8C861" transform="translate(194,323)"/>
<path d="M0 0 C0.66 0.33 1.32 0.66 2 1 C-1.64751781 6.08441876 -3.85169289 7.79444959 -10 9 C-6.83047153 5.73991357 -3.60062011 2.77762123 0 0 Z " fill="#D6E6A0" transform="translate(209,327)"/>
<path d="M0 0 C-2.79738782 1.5067748 -5.40322432 2.48224115 -8.5 3.1875 C-9.2528125 3.36667969 -10.005625 3.54585937 -10.78125 3.73046875 C-13.14833379 4.01801942 -14.74544015 3.72248395 -17 3 C-11.42531458 -0.61601216 -6.39432346 -0.30720059 0 0 Z " fill="#D6E7CF" transform="translate(198,165)"/>
<path d="M0 0 C-4.56943249 2.62215126 -8.13016568 3.44010215 -13.375 3.6875 C-15.24285156 3.78611328 -15.24285156 3.78611328 -17.1484375 3.88671875 C-18.08945313 3.92410156 -19.03046875 3.96148437 -20 4 C-20 3.67 -20 3.34 -20 3 C-17.41932437 2.30081695 -14.83627153 1.61538951 -12.25 0.9375 C-11.15558594 0.63875977 -11.15558594 0.63875977 -10.0390625 0.33398438 C-6.28968956 -0.63744407 -3.69725762 -1.15449387 0 0 Z " fill="#CFE3DB" transform="translate(258,289)"/>
<path d="M0 0 C0.66 0.33 1.32 0.66 2 1 C0.5140084 5.59306496 -1.85014682 8.43569245 -5 12 C-5.33 11.34 -5.66 10.68 -6 10 C-6.99 9.34 -7.98 8.68 -9 8 C-7.329375 7.4121875 -7.329375 7.4121875 -5.625 6.8125 C-2.68039334 5.57517033 -2.14117455 5.26393503 -0.5625 2.3125 C-0.376875 1.549375 -0.19125 0.78625 0 0 Z " fill="#D5D1B8" transform="translate(357,315)"/>
<path d="M0 0 C0.66 0.33 1.32 0.66 2 1 C0.7954483 3.97122753 -0.24053164 5.65527677 -3.203125 7 C-5.45586752 7.73674598 -7.70515269 8.40824692 -10 9 C-6.83047153 5.73991357 -3.60062011 2.77762123 0 0 Z " fill="#D5E5A3" transform="translate(229,312)"/>
<path d="M0 0 C1.485 0.99 1.485 0.99 3 2 C3.29296875 4.3828125 3.29296875 4.3828125 3.1875 7.125 C3.16042969 8.03507813 3.13335937 8.94515625 3.10546875 9.8828125 C3.07066406 10.58148438 3.03585937 11.28015625 3 12 C0.70423322 9.70423322 -0.0638375 8.09653751 -1 5 C-0.625 2.1875 -0.625 2.1875 0 0 Z " fill="#3A7448" transform="translate(293,170)"/>
<path d="M0 0 C0.99 0.66 1.98 1.32 3 2 C-0.3 5.63 -3.6 9.26 -7 13 C-7 12.01 -7 11.02 -7 10 C-6.360625 9.38125 -5.72125 8.7625 -5.0625 8.125 C-2.69337973 5.6840882 -2.53079048 4.27320794 -2 1 C-1.34 0.67 -0.68 0.34 0 0 Z " fill="#CDCAB4" transform="translate(348,326)"/>
<path d="M0 0 C0.33 1.32 0.66 2.64 1 4 C0.34 4 -0.32 4 -1 4 C-1.165 5.258125 -1.33 6.51625 -1.5 7.8125 C-1.5928125 8.52019531 -1.685625 9.22789062 -1.78125 9.95703125 C-2.053233 12.15471706 -2.053233 12.15471706 -2 15 C-2.66 15 -3.32 15 -4 15 C-5.13864162 11.58407513 -4.84292788 10.78557691 -3.6875 7.5 C-3.42324219 6.7265625 -3.15898437 5.953125 -2.88671875 5.15625 C-2 3 -2 3 0 0 Z " fill="#9BBF4A" transform="translate(198,316)"/>
<path d="M0 0 C-8.03501094 4.07877462 -8.03501094 4.07877462 -12.0625 3.75 C-12.701875 3.5025 -13.34125 3.255 -14 3 C-9.30516132 0.47200994 -5.26738261 -1.6006486 0 0 Z " fill="#D6E9E1" transform="translate(274,285)"/>
<path d="M0 0 C0.12375 0.639375 0.2475 1.27875 0.375 1.9375 C0.684375 2.9584375 0.684375 2.9584375 1 4 C1.66 4.33 2.32 4.66 3 5 C-1.75 9 -1.75 9 -4 9 C-3.35455571 5.51460083 -1.89865603 2.97180943 0 0 Z " fill="#A1BF57" transform="translate(184,340)"/>
<path d="M0 0 C1.65 0 3.3 0 5 0 C5.33 0.66 5.66 1.32 6 2 C5.01 2 4.02 2 3 2 C3.33 3.65 3.66 5.3 4 7 C-0.875 5.25 -0.875 5.25 -2 3 C-1.34 3 -0.68 3 0 3 C0 2.01 0 1.02 0 0 Z " fill="#D3D8A3" transform="translate(178,348)"/>
<path d="M0 0 C6.0546875 -0.1953125 6.0546875 -0.1953125 8 0 C8.66 0.66 9.32 1.32 10 2 C6.78548731 3.60725635 3.56387464 3.05748185 0 3 C0 2.01 0 1.02 0 0 Z " fill="#E1DAC3" transform="translate(246,372)"/>
<path d="M0 0 C0 3.2275749 -0.13727175 5.88090554 -1 9 C-3.5625 10.375 -3.5625 10.375 -6 11 C-4.54955729 6.89041233 -2.48889248 3.56741255 0 0 Z " fill="#CAC8B2" transform="translate(140,171)"/>
<path d="M0 0 C-2 2 -2 2 -4.3828125 2.1953125 C-5.28773438 2.17210937 -6.19265625 2.14890625 -7.125 2.125 C-8.49011719 2.09792969 -8.49011719 2.09792969 -9.8828125 2.0703125 C-10.58148438 2.04710937 -11.28015625 2.02390625 -12 2 C-7.89783794 -0.73477471 -4.73617773 -1.57872591 0 0 Z " fill="#FBFCF8" transform="translate(240,295)"/>
<path d="M0 0 C0 2 0 4 0 6 C-2 7.6875 -2 7.6875 -4 9 C-4.99 8.34 -5.98 7.68 -7 7 C-4.69 4.69 -2.38 2.38 0 0 Z " fill="#DAD8BF" transform="translate(162,145)"/>
<path d="M0 0 C-2.70188004 1.80125336 -4.93057703 3.00243753 -8 4 C-8.99 3.67 -9.98 3.34 -11 3 C-10.34 3 -9.68 3 -9 3 C-9 2.34 -9 1.68 -9 1 C-5.64919071 -1.10976881 -3.77897651 -1.0497157 0 0 Z " fill="#D7D1BB" transform="translate(298,365)"/>
<path d="M0 0 C0.66 0 1.32 0 2 0 C2.33 2.31 2.66 4.62 3 7 C0.97954558 6.39816251 -1.02111039 5.72693904 -3 5 C-3.33 4.34 -3.66 3.68 -4 3 C-2.68 3.33 -1.36 3.66 0 4 C0 2.68 0 1.36 0 0 Z " fill="#DED9C0" transform="translate(188,353)"/>
<path d="M0 0 C0.66 0.33 1.32 0.66 2 1 C-1.32307692 5.8 -1.32307692 5.8 -4.75 6.8125 C-5.4925 6.874375 -6.235 6.93625 -7 7 C-6.34 6.67 -5.68 6.34 -5 6 C-4.5359375 5.0409375 -4.5359375 5.0409375 -4.0625 4.0625 C-3 2 -3 2 0 0 Z " fill="#D5E49F" transform="translate(197,336)"/>
<path d="M0 0 C0.515625 0.37125 1.03125 0.7425 1.5625 1.125 C-1.94526784 2.72855101 -4.58104879 3.34536864 -8.4375 3.125 C-8.7675 2.465 -9.0975 1.805 -9.4375 1.125 C-3.0375 -1.09038462 -3.0375 -1.09038462 0 0 Z " fill="#2D5E4B" transform="translate(270.4375,282.875)"/>
<path d="M0 0 C0 0.66 0 1.32 0 2 C-2.88211302 2.96070434 -4.69850044 3.10581883 -7.6875 3.0625 C-8.89986328 3.04896484 -8.89986328 3.04896484 -10.13671875 3.03515625 C-11.05904297 3.01775391 -11.05904297 3.01775391 -12 3 C-7.74560485 0.81962249 -4.84315381 0 0 0 Z " fill="#628A72" transform="translate(189,168)"/>
<path d="M0 0 C0.99 0.66 1.98 1.32 3 2 C1.71349294 2.69710731 0.42059335 3.38242876 -0.875 4.0625 C-1.95394531 4.63677734 -1.95394531 4.63677734 -3.0546875 5.22265625 C-3.69664062 5.47917969 -4.33859375 5.73570312 -5 6 C-5.66 5.67 -6.32 5.34 -7 5 C-5.68 3.68 -4.36 2.36 -3 1 C-2.01 1.33 -1.02 1.66 0 2 C0 1.34 0 0.68 0 0 Z " fill="#D9CFB8" transform="translate(310,357)"/>
<path d="M0 0 C0.66 0 1.32 0 2 0 C1.34 2.97 0.68 5.94 0 9 C-0.66 8.34 -1.32 7.68 -2 7 C-1.6730244 4.38419521 -1.17960932 2.35921863 0 0 Z " fill="#D9D6BC" transform="translate(374,279)"/>
<path d="M0 0 C0 0.99 0 1.98 0 3 C-2.31 3.33 -4.62 3.66 -7 4 C-7.33 3.34 -7.66 2.68 -8 2 C-4.91190305 0.23537317 -3.76687864 0 0 0 Z " fill="#4F7E63" transform="translate(243,154)"/>
<path d="M0 0 C0.99 0.33 1.98 0.66 3 1 C1.35 2.65 -0.3 4.3 -2 6 C-4 5 -4 5 -5 3 C-2.6875 1.4375 -2.6875 1.4375 0 0 Z " fill="#E4DAC4" transform="translate(325,347)"/>
<path d="M0 0 C-0.33 0.99 -0.66 1.98 -1 3 C-2.65 3 -4.3 3 -6 3 C-6.33 2.01 -6.66 1.02 -7 0 C-3.86650268 -1.04449911 -3.01031744 -0.93423645 0 0 Z " fill="#DFEFE0" transform="translate(231,296)"/>
<path d="M0 0 C2.50037734 2.17424117 3.43628586 3.73045798 4 7 C3.01 7.495 3.01 7.495 2 8 C1.01 7.34 0.02 6.68 -1 6 C-0.34 6 0.32 6 1 6 C0.67 4.02 0.34 2.04 0 0 Z " fill="#F6F0D9" transform="translate(361,176)"/>
<path d="M0 0 C0.66 0.33 1.32 0.66 2 1 C0.68 2.65 -0.64 4.3 -2 6 C-3.32 5.67 -4.64 5.34 -6 5 C-4.02 3.35 -2.04 1.7 0 0 Z " fill="#D5E6A0" transform="translate(217,321)"/>
<path d="M0 0 C1 2 1 2 0.0625 5.125 C-0.288125 6.07375 -0.63875 7.0225 -1 8 C-1.99 8 -2.98 8 -4 8 C-2.87548273 5.0280615 -1.77706209 2.66559313 0 0 Z " fill="#3A723D" transform="translate(248,229)"/>
<path d="M0 0 C3.02990095 1.71967351 5.76327296 3.29238306 8 6 C8 6.66 8 7.32 8 8 C4.27382578 6.75794193 2.60708543 4.8889325 0 2 C0 1.34 0 0.68 0 0 Z " fill="#396C2D" transform="translate(270,219)"/>
<path d="M0 0 C5.75 0.75 5.75 0.75 8 3 C6.68 3 5.36 3 4 3 C4 3.66 4 4.32 4 5 C3.01 5 2.02 5 1 5 C0.67 3.35 0.34 1.7 0 0 Z " fill="#D6D1B9" transform="translate(292,119)"/>
<path d="M0 0 C0 0.66 0 1.32 0 2 C-2.70879335 3.35439668 -5.00933268 3.06501451 -8 3 C-5.53387212 -0.1151089 -3.89156016 -0.31553191 0 0 Z " fill="#EDF9D9" transform="translate(218,299)"/>
<path d="M0 0 C0.33 0 0.66 0 1 0 C0.67 3.63 0.34 7.26 0 11 C-0.33 9.68 -0.66 8.36 -1 7 C-1.66 6.67 -2.32 6.34 -3 6 C-2.01 4.02 -1.02 2.04 0 0 Z " fill="#D4CDB6" transform="translate(379,259)"/>
<path d="M0 0 C0.99 0.33 1.98 0.66 3 1 C1.35 2.65 -0.3 4.3 -2 6 C-2.33 5.34 -2.66 4.68 -3 4 C-2.67 3.01 -2.34 2.02 -2 1 C-1.34 0.67 -0.68 0.34 0 0 Z " fill="#CCE468" transform="translate(256,214)"/>
<path d="M0 0 C1.98 0.99 1.98 0.99 4 2 C3.67 3.65 3.34 5.3 3 7 C1.25372522 4.38058783 0.61277612 2.96175123 0 0 Z M-1 3 C-0.34 3.66 0.32 4.32 1 5 C0.01 5 -0.98 5 -2 5 C-1.67 4.34 -1.34 3.68 -1 3 Z " fill="#E5E0C9" transform="translate(325,136)"/>
</svg>
