<?xml version="1.0" encoding="UTF-8"?>
<svg version="1.1" xmlns="http://www.w3.org/2000/svg" width="500" height="500">
<path d="M0 0 C1.6875 2.44140625 1.6875 2.44140625 3 5.5625 C3.74056641 7.30466797 3.74056641 7.30466797 4.49609375 9.08203125 C6.42253575 13.98786953 8.10951516 18.97768046 9.82250977 23.9609375 C11.69631061 29.33457989 13.75830012 34.28654914 17 39 C17.46535156 39.69351563 17.93070312 40.38703125 18.41015625 41.1015625 C25.23490902 50.05590643 36.61807706 52.93830129 46.77734375 56.77734375 C50.07374897 58.02797991 53.35501806 59.30677623 56.625 60.625 C57.58664062 61.00914062 58.54828125 61.39328125 59.5390625 61.7890625 C61.93477891 62.96790708 63.36805657 63.90407266 65 66 C65.5 68.9375 65.5 68.9375 65 72 C61.48732897 75.3566601 57.98897112 76.99298033 53.44921875 78.62109375 C52.83158157 78.84773209 52.2139444 79.07437042 51.57759094 79.30787659 C49.6173841 80.0268185 47.65315356 80.73359823 45.6875 81.4375 C26.9814108 88.07847955 26.9814108 88.07847955 14.51171875 102.890625 C12.1161172 108.34045711 10.03582714 113.89434576 7.953125 119.46875 C7.59855225 120.41339111 7.24397949 121.35803223 6.87866211 122.33129883 C6.17722624 124.21041453 5.48505595 126.09301941 4.80297852 127.97924805 C4.48256592 128.84590088 4.16215332 129.71255371 3.83203125 130.60546875 C3.55077393 131.38043701 3.2695166 132.15540527 2.97973633 132.95385742 C1.465719 136.11582583 -0.12254762 137.65363722 -3.375 138.9375 C-6 139 -6 139 -8.41796875 137.5859375 C-11.94757318 134.05099328 -13.23523791 130.32223041 -14.9375 125.6875 C-15.28031006 124.79901367 -15.62312012 123.91052734 -15.97631836 122.99511719 C-17.55881427 118.88778576 -19.08764052 114.76189401 -20.6015625 110.62890625 C-24.89553987 98.97460924 -24.89553987 98.97460924 -34 91 C-34 90.34 -34 89.68 -34 89 C-34.85887817 88.80313599 -34.85887817 88.80313599 -35.73510742 88.60229492 C-37.99295704 88.00187291 -40.07321648 87.23873625 -42.23828125 86.36328125 C-43.45862061 85.87251099 -43.45862061 85.87251099 -44.70361328 85.37182617 C-45.5645459 85.02224854 -46.42547852 84.6726709 -47.3125 84.3125 C-49.10793242 83.58559037 -50.90350685 82.85903143 -52.69921875 82.1328125 C-53.59044434 81.77219727 -54.48166992 81.41158203 -55.39990234 81.04003906 C-57.78623501 80.085506 -60.18027879 79.15709033 -62.58203125 78.2421875 C-63.26934326 77.97752686 -63.95665527 77.71286621 -64.66479492 77.44018555 C-66.51653348 76.72914931 -68.37145658 76.02642262 -70.2265625 75.32421875 C-73 74 -73 74 -75 71 C-75.54382168 65.7793119 -75.54382168 65.7793119 -73.95922852 63.50854492 C-71.04754344 61.26663812 -67.75135502 60.13382679 -64.33984375 58.86328125 C-63.22132774 58.43682564 -63.22132774 58.43682564 -62.08021545 58.00175476 C-60.50731327 57.40385208 -58.93292554 56.80984479 -57.35717773 56.21948242 C-54.93975855 55.31334658 -52.52723944 54.3950476 -50.11523438 53.47460938 C-48.58620915 52.89511607 -47.05692098 52.31631597 -45.52734375 51.73828125 C-44.80336899 51.46333328 -44.07939423 51.18838531 -43.33348083 50.90510559 C-38.23312671 49 -38.23312671 49 -36 49 C-36 48.34 -36 47.68 -36 47 C-35.21625 46.7525 -34.4325 46.505 -33.625 46.25 C-30.5178793 44.77041871 -30.39110283 44.01586745 -29 41 C-28.125 39.6875 -27.25 38.375 -26.375 37.0625 C-20.89253011 28.05077431 -17.62105271 17.61818496 -14.20068359 7.67675781 C-12.93532636 4.07719059 -11.93543764 1.46557016 -9 -1 C-5.13062973 -2.28979009 -3.65489411 -1.71799059 0 0 Z " fill="#FDFDFD" transform="translate(284,149)"/>
<path d="M0 0 C2.37109375 0.0859375 2.37109375 0.0859375 5 1 C6.66015625 3.4765625 6.66015625 3.4765625 8.0625 6.625 C8.57425781 7.71167969 9.08601563 8.79835938 9.61328125 9.91796875 C10.39845589 11.66304703 11.17411634 13.41269277 11.91796875 15.17578125 C14.65750496 20.97639548 19.40466325 22.63806746 25 25 C26.7086898 25.77004283 28.41704928 26.54081927 30.125 27.3125 C31.41560972 27.87742086 32.70686242 28.44088979 34 29 C33.953125 31.8046875 33.953125 31.8046875 33 35 C30.48241421 36.38160196 28.43987308 37.26890104 25.75 38.125 C18.76393245 40.47924475 18.76393245 40.47924475 13 45 C11.7875402 47.55063548 10.78898791 49.91499871 9.875 52.5625 C6.78408924 61.27552681 6.78408924 61.27552681 4 63 C1.9375 62.94140625 1.9375 62.94140625 0 62 C-1.125 60.21484375 -1.125 60.21484375 -2 57.9375 C-3.29307312 54.72534217 -4.65171888 51.63525174 -6.25 48.5625 C-8 45 -8 45 -8 43 C-8.66 43 -9.32 43 -10 43 C-10 42.34 -10 41.68 -10 41 C-10.6290625 40.82984375 -11.258125 40.6596875 -11.90625 40.484375 C-24.08447014 37.03632472 -24.08447014 37.03632472 -28 34 C-28.796875 32 -28.796875 32 -29 30 C-26.23467756 25.65449331 -22.14917647 25.05150611 -17.47265625 23.77734375 C-12.38168137 22.17686349 -8.86472913 19.4198678 -6 15 C-4.80675149 11.98239179 -3.75657999 8.94247645 -2.71875 5.86914062 C-1.0803446 1.0803446 -1.0803446 1.0803446 0 0 Z " fill="#FCFCFC" transform="translate(213,256)"/>
<path d="M0 0 C6.69965826 0.64419791 12.34290292 2.85779567 18.3125 5.8125 C19.3344043 6.30943359 19.3344043 6.30943359 20.37695312 6.81640625 C24.68755636 9.02045117 27.75524373 11.40378077 31 15 C28 15 28 15 26 14 C26 13.34 26 12.68 26 12 C25.44731445 11.87761963 24.89462891 11.75523926 24.32519531 11.62915039 C21.71119521 10.92185532 19.30014182 9.96691901 16.796875 8.93359375 C15.8171875 8.53076172 14.8375 8.12792969 13.828125 7.71289062 C12.81234375 7.29201172 11.7965625 6.87113281 10.75 6.4375 C9.71875 6.01275391 8.6875 5.58800781 7.625 5.15039062 C5.08231134 4.10270872 2.54069968 3.05249404 0 2 C0 1.34 0 0.68 0 0 Z " fill="#ECECEC" transform="translate(224,226)"/>
<path d="M0 0 C2.29767742 2.86050907 3.82793715 5.65335659 5.3125 9 C8.97271662 16.41847476 14.53081589 18.42441927 22 21 C22 21.66 22 22.32 22 23 C15.97801244 22.22296935 8.94706739 19.80184632 5 15 C5 14.34 5 13.68 5 13 C4.34 13 3.68 13 3 13 C2.49242138 11.58603098 1.99425075 10.16868271 1.5 8.75 C1.08234375 7.56664062 1.08234375 7.56664062 0.65625 6.359375 C0 4 0 4 0 0 Z " fill="#E1E1E0" transform="translate(219,261)"/>
<path d="M0 0 C0.99 0.33 1.98 0.66 3 1 C2.278125 1.721875 1.55625 2.44375 0.8125 3.1875 C-2.66412073 7.28635683 -4.13021366 12.15982789 -5.88671875 17.171875 C-7 20 -7 20 -9 22 C-9.99 21.67 -10.98 21.34 -12 21 C-11.34 20.67 -10.68 20.34 -10 20 C-10 19.01 -10 18.02 -10 17 C-9.34 17 -8.68 17 -8 17 C-7.95875 16.030625 -7.9175 15.06125 -7.875 14.0625 C-7.15938586 8.76044975 -3.75152029 3.75152029 0 0 Z " fill="#E1E0E1" transform="translate(227,296)"/>
<path d="M0 0 C2.24151882 2.24151882 2.96301325 4.0067112 4.125 6.9375 C4.47820312 7.81277344 4.83140625 8.68804687 5.1953125 9.58984375 C6 12 6 12 6 15 C8.97 15.495 8.97 15.495 12 16 C12.33 15.34 12.66 14.68 13 14 C13.99 15.485 13.99 15.485 15 17 C12.3125 18.25 12.3125 18.25 9 19 C4.01224278 16.62487752 2.6066306 12.41300395 0.69921875 7.53515625 C-0.0261953 4.90502373 -0.13110134 2.71428328 0 0 Z " fill="#F3F1F2" transform="translate(269,269)"/>
<path d="M0 0 C2.4375 0.1875 2.4375 0.1875 5 1 C6.3125 3.0625 6.3125 3.0625 7 5 C6.01 6.485 6.01 6.485 5 8 C4.34 6.68 3.68 5.36 3 4 C-0.41703059 6.2780204 -0.79651189 7.38372165 -2.1875 11.125 C-2.53167969 12.03507812 -2.87585938 12.94515625 -3.23046875 13.8828125 C-3.48441406 14.58148438 -3.73835937 15.28015625 -4 16 C-5.41131097 12.23948152 -4.5449072 9.97977756 -3.125 6.3125 C-2.75632813 5.33925781 -2.38765625 4.36601562 -2.0078125 3.36328125 C-1 1 -1 1 0 0 Z " fill="#F1F1F2" transform="translate(213,256)"/>
<path d="M0 0 C0 0.66 0 1.32 0 2 C-2.97 1.67 -5.94 1.34 -9 1 C-9.268125 1.86625 -9.53625 2.7325 -9.8125 3.625 C-10.97111987 6.91791964 -12.38209839 9.91127875 -14 13 C-15.10652097 9.68043709 -14.95237748 9.11203583 -13.75 6 C-13.49734375 5.319375 -13.2446875 4.63875 -12.984375 3.9375 C-9.85636266 -2.2192227 -6.07535264 -2.29513322 0 0 Z " fill="#E9E9E9" transform="translate(284,149)"/>
<path d="M0 0 C0.66 0 1.32 0 2 0 C2.3125 2.75 2.3125 2.75 2 6 C-1.8781651 10.54681425 -8.31757924 12.56620033 -14 14 C-14.99 13.67 -15.98 13.34 -17 13 C-16.18015625 12.66226563 -15.3603125 12.32453125 -14.515625 11.9765625 C-13.43796875 11.53054687 -12.3603125 11.08453125 -11.25 10.625 C-10.18265625 10.18414062 -9.1153125 9.74328125 -8.015625 9.2890625 C-7.02046875 8.86367187 -6.0253125 8.43828125 -5 8 C-3.83984375 7.52046875 -3.83984375 7.52046875 -2.65625 7.03125 C-0.6211985 6.03308965 -0.6211985 6.03308965 -0.25 2.875 C-0.1675 1.92625 -0.085 0.9775 0 0 Z " fill="#E9E9E9" transform="translate(347,215)"/>
<path d="M0 0 C2.97932935 3.48930465 4.54739251 7.39716735 6.1875 11.625 C6.46013672 12.305625 6.73277344 12.98625 7.01367188 13.6875 C9 18.72550517 9 18.72550517 9 21 C8.01 20.67 7.02 20.34 6 20 C4.78854206 17.39138618 3.76909709 14.88722957 2.8125 12.1875 C2.53986328 11.46240234 2.26722656 10.73730469 1.98632812 9.99023438 C0.65083168 6.33184437 0 3.99490577 0 0 Z " fill="#ECECEB" transform="translate(284,151)"/>
<path d="M0 0 C-2.69981425 2.69981425 -5.88020238 3.70230888 -9.375 5.0625 C-10.04789062 5.33126953 -10.72078125 5.60003906 -11.4140625 5.87695312 C-14.57165487 7.1232076 -17.67070356 8.30853074 -21 9 C-17.51601538 5.10613483 -15.0026479 3.40074141 -10 2 C-8.76528889 1.44977693 -7.53612326 0.88695892 -6.3125 0.3125 C-3 -1 -3 -1 0 0 Z " fill="#EBEBEB" transform="translate(330,229)"/>
<path d="M0 0 C-3.38103567 2.97531139 -6.71176223 3.80882284 -11 5 C-11.66 5.66 -12.32 6.32 -13 7 C-13.99 7 -14.98 7 -16 7 C-16 6.01 -16 5.02 -16 4 C-10.96003362 0.64002241 -6.00290323 -0.29282455 0 0 Z " fill="#F3F3F2" transform="translate(201,280)"/>
<path d="M0 0 C0.66 0.33 1.32 0.66 2 1 C-2.01969961 6.2019642 -5.68914164 10.2642537 -12.375 11.75 C-13.674375 11.87375 -13.674375 11.87375 -15 12 C-15 11.34 -15 10.68 -15 10 C-12.03 9.01 -9.06 8.02 -6 7 C-6 6.34 -6 5.68 -6 5 C-5.195625 4.731875 -4.39125 4.46375 -3.5625 4.1875 C-2.716875 3.795625 -1.87125 3.40375 -1 3 C-0.67 2.01 -0.34 1.02 0 0 Z " fill="#F1F1F0" transform="translate(254,191)"/>
<path d="M0 0 C1.77395508 0.42466497 3.54410631 0.8652409 5.3125 1.3125 C6.29863281 1.55613281 7.28476562 1.79976562 8.30078125 2.05078125 C11.00141012 3.00049589 12.20956216 3.81847677 14 6 C13.21625 5.814375 12.4325 5.62875 11.625 5.4375 C9.02910225 4.74037734 9.02910225 4.74037734 7 6 C6.67 5.34 6.34 4.68 6 4 C4.02111039 3.27306096 2.02045442 2.60183749 0 2 C0 1.34 0 0.68 0 0 Z " fill="#F4F4F4" transform="translate(316,201)"/>
<path d="M0 0 C3.63 1.32 7.26 2.64 11 4 C11 4.66 11 5.32 11 6 C6.61110675 5.33501617 3.0188515 3.81242323 -1 2 C-0.67 1.34 -0.34 0.68 0 0 Z " fill="#ECECEB" transform="translate(230,278)"/>
<path d="M0 0 C2.97 0.495 2.97 0.495 6 1 C6 1.66 6 2.32 6 3 C7.32 3 8.64 3 10 3 C10 3.66 10 4.32 10 5 C6.53058454 4.54177532 3.32604951 4.10868317 0 3 C0 2.01 0 1.02 0 0 Z " fill="#EFEFEE" transform="translate(213,221)"/>
<path d="M0 0 C3.55780196 0.60990891 6.6828589 1.5783681 10 3 C10 3.33 10 3.66 10 4 C6.05272412 4.17942163 3.4019487 4.09350689 0 2 C0 1.34 0 0.68 0 0 Z " fill="#F4F4F2" transform="translate(189,290)"/>
</svg>
